<svg xmlns="http://www.w3.org/2000/svg" width="1200" height="700" viewBox="0 0 1200 700">
<rect width="1200" height="700" fill="#0d1117"/>
<text x="60" y="70" fill="#f0f6fc" font-size="34" font-family="Arial">Agentic Program Ops</text>
<text x="60" y="110" fill="#8b949e" font-size="18" font-family="Arial">Planning inputs transformed into reusable execution artifacts</text>
<g font-family="Arial" font-size="18">
<rect x="60" y="180" width="220" height="90" rx="14" fill="#161b22" stroke="#30363d"/>
<text x="90" y="225" fill="#f0f6fc">Planning Inputs</text>
<text x="90" y="250" fill="#8b949e" font-size="15">Docs • Tickets • Notes</text>
<rect x="370" y="170" width="220" height="110" rx="14" fill="#1f6feb"/>
<text x="415" y="225" fill="white">Workflow Agent Layer</text>
<text x="405" y="250" fill="#dbeafe" font-size="15">orchestration + synthesis</text>
<rect x="700" y="110" width="190" height="70" rx="12" fill="#161b22" stroke="#30363d"/><text x="735" y="152" fill="#f0f6fc">PRD Synthesizer</text>
<rect x="700" y="210" width="190" height="70" rx="12" fill="#161b22" stroke="#30363d"/><text x="726" y="252" fill="#f0f6fc">Roadmap Generator</text>
<rect x="700" y="310" width="190" height="70" rx="12" fill="#161b22" stroke="#30363d"/><text x="730" y="352" fill="#f0f6fc">Dependency Mapper</text>
<rect x="700" y="410" width="190" height="70" rx="12" fill="#161b22" stroke="#30363d"/><text x="706" y="452" fill="#f0f6fc">Executive Summary</text>
<rect x="700" y="510" width="190" height="70" rx="12" fill="#161b22" stroke="#30363d"/><text x="735" y="552" fill="#f0f6fc">Risk Review</text>
<rect x="980" y="250" width="170" height="120" rx="14" fill="#238636"/><text x="1010" y="305" fill="white">Human Review</text><text x="1000" y="332" fill="#dcfce7" font-size="15">validated outputs</text>
</g>
<g stroke="#8b949e" stroke-width="3" fill="none">
<line x1="280" y1="225" x2="370" y2="225"/>
<line x1="590" y1="225" x2="700" y2="145"/>
<line x1="590" y1="225" x2="700" y2="245"/>
<line x1="590" y1="225" x2="700" y2="345"/>
<line x1="590" y1="225" x2="700" y2="445"/>
<line x1="590" y1="225" x2="700" y2="545"/>
<line x1="890" y1="145" x2="980" y2="290"/>
<line x1="890" y1="245" x2="980" y2="305"/>
<line x1="890" y1="345" x2="980" y2="320"/>
<line x1="890" y1="445" x2="980" y2="335"/>
<line x1="890" y1="545" x2="980" y2="350"/>
</g>
</svg>